<svg xmlns="http://www.w3.org/2000/svg" width="256" height="256" viewBox="0 0 256 256">
<defs><linearGradient id="bg" x2=".7" y2="1"><stop stop-color="#2d2a4e"/><stop offset="1" stop-color="#0a1826"/></linearGradient><linearGradient id="gold" x2=".1" y2="1"><stop stop-color="#ffe4a5"/><stop offset="1" stop-color="#a46c39"/></linearGradient></defs>
<circle cx="128" cy="128" r="114" fill="url(#bg)"/><circle cx="128" cy="128" r="106" fill="none" stroke="url(#gold)" stroke-width="3"/><circle cx="128" cy="128" r="99" fill="none" stroke="#bab8cf" stroke-opacity=".25" stroke-width="1.5"/>
<path d="M128 6 135 18 128 30 121 18Z" fill="url(#gold)"/>
<path d="M112 122 34 53 47 95 99 147 43 106 58 141 107 166 64 151 80 177 119 183Z M144 122 222 53 209 95 157 147 213 106 198 141 149 166 192 151 176 177 137 183Z" fill="url(#gold)"/>
<path d="M128 38 144 77 135 146H121L112 77Z" fill="#dff4f7"/><path d="M128 38 144 77 135 146H128Z" fill="#5b97b3"/>
<path d="M87 145 97 133 117 143H139L159 133 169 145 159 160 141 155H115L97 160Z" fill="url(#gold)"/>
<path d="M121 153H135V198H121Z" fill="#cea55e"/><path d="M128 190 141 203 128 217 115 203Z" fill="url(#gold)"/><path d="M128 138 137 149 128 160 119 149Z" fill="#6be7f4"/>
</svg>
